G75*
%MOIN*%
%OFA0B0*%
%FSLAX25Y25*%
%IPPOS*%
%LPD*%
%AMOC8*
5,1,8,0,0,1.08239X$1,22.5*
%
%ADD10R,0.09400X0.07500*%
%ADD11R,0.06299X0.07098*%
%ADD12R,0.07098X0.06299*%
%ADD13R,0.06000X0.09000*%
%ADD14R,0.04400X0.01400*%
%ADD15R,0.05000X0.01400*%
%ADD16R,0.01400X0.04400*%
%ADD17R,0.01400X0.05000*%
%ADD18R,0.01380X0.05000*%
%ADD19R,0.05000X0.10000*%
%ADD20R,0.04000X0.17500*%
%ADD21R,0.08661X0.09843*%
%ADD22R,0.07874X0.01969*%
%ADD23R,0.05000X0.15000*%
D10*
X0078914Y0035257D03*
X0078914Y0052957D03*
D11*
X0052465Y0035157D03*
X0063662Y0035157D03*
X0063712Y0053057D03*
X0052515Y0053057D03*
X0098055Y0012857D03*
X0109252Y0012857D03*
X0122255Y0012667D03*
X0133452Y0012667D03*
X0161255Y0030027D03*
X0172452Y0030027D03*
X0190336Y0093546D03*
X0201532Y0093546D03*
D12*
X0161183Y0074395D03*
X0161183Y0063198D03*
X0089134Y0096618D03*
X0089134Y0107815D03*
X0055213Y0103598D03*
X0055213Y0114795D03*
D13*
X0091954Y0138247D03*
X0109954Y0138247D03*
X0109954Y0164247D03*
X0091954Y0164247D03*
X0142034Y0164227D03*
X0160034Y0164227D03*
X0160034Y0138227D03*
X0142034Y0138227D03*
D14*
X0143364Y0082461D03*
X0143364Y0060413D03*
X0108964Y0060413D03*
X0108964Y0082461D03*
D15*
X0109264Y0079311D03*
X0109264Y0076161D03*
X0109264Y0073012D03*
X0109264Y0069862D03*
X0109264Y0066712D03*
X0109264Y0063563D03*
X0143064Y0063563D03*
X0143064Y0066712D03*
X0143064Y0069862D03*
X0143064Y0073012D03*
X0143064Y0076161D03*
X0143064Y0079311D03*
D16*
X0137187Y0088637D03*
X0115140Y0088637D03*
X0115140Y0054237D03*
X0137187Y0054237D03*
D17*
X0134038Y0054537D03*
X0130888Y0054537D03*
X0118290Y0054537D03*
X0118290Y0088337D03*
X0130888Y0088337D03*
X0134038Y0088337D03*
D18*
X0127739Y0088337D03*
X0124589Y0088337D03*
X0121439Y0088337D03*
X0121439Y0054537D03*
X0124589Y0054537D03*
X0127739Y0054537D03*
D19*
X0185864Y0054497D03*
X0195864Y0054497D03*
X0205864Y0054497D03*
X0205864Y0075993D03*
X0195864Y0075993D03*
X0185864Y0075993D03*
D20*
X0151164Y0110187D03*
X0141164Y0110187D03*
X0131164Y0110187D03*
X0121164Y0110187D03*
X0111164Y0110187D03*
X0101164Y0110187D03*
X0101164Y0032687D03*
X0111164Y0032687D03*
X0121164Y0032687D03*
X0131164Y0032687D03*
X0141164Y0032687D03*
X0151164Y0032687D03*
D21*
X0034078Y0066191D03*
X0013211Y0066191D03*
X0013211Y0099262D03*
X0034078Y0099262D03*
D22*
X0035062Y0089026D03*
X0035062Y0085876D03*
X0035062Y0082727D03*
X0035062Y0079577D03*
X0035062Y0076427D03*
D23*
X0067134Y0116197D03*
X0077134Y0116197D03*
M02*
