G75*
%MOIN*%
%OFA0B0*%
%FSLAX25Y25*%
%IPPOS*%
%LPD*%
%AMOC8*
5,1,8,0,0,1.08239X$1,22.5*
%
%ADD10C,0.00000*%
%ADD11R,0.09400X0.07500*%
%ADD12R,0.06299X0.07098*%
%ADD13R,0.07098X0.06299*%
%ADD14R,0.06000X0.09000*%
%ADD15R,0.04400X0.01400*%
%ADD16R,0.05000X0.01400*%
%ADD17R,0.01400X0.04400*%
%ADD18R,0.01400X0.05000*%
%ADD19R,0.01380X0.05000*%
%ADD20R,0.05000X0.10000*%
%ADD21R,0.04000X0.17500*%
%ADD22R,0.08661X0.09843*%
%ADD23R,0.07874X0.01969*%
%ADD24R,0.05000X0.15000*%
%ADD25C,0.01600*%
D10*
X0005683Y0007197D02*
X0006084Y0173908D01*
X0219614Y0173717D01*
X0219334Y0006957D01*
X0005683Y0007197D01*
D11*
X0078914Y0035257D03*
X0078914Y0052957D03*
D12*
X0063712Y0053057D03*
X0052515Y0053057D03*
X0052465Y0035157D03*
X0063662Y0035157D03*
X0098055Y0012857D03*
X0109252Y0012857D03*
X0122255Y0012667D03*
X0133452Y0012667D03*
X0161255Y0030027D03*
X0172452Y0030027D03*
X0190336Y0093546D03*
X0201532Y0093546D03*
D13*
X0161183Y0074395D03*
X0161183Y0063198D03*
X0089134Y0096618D03*
X0089134Y0107815D03*
X0055213Y0103598D03*
X0055213Y0114795D03*
D14*
X0091954Y0138247D03*
X0109954Y0138247D03*
X0109954Y0164247D03*
X0091954Y0164247D03*
X0142034Y0164227D03*
X0160034Y0164227D03*
X0160034Y0138227D03*
X0142034Y0138227D03*
D15*
X0143364Y0082461D03*
X0143364Y0060413D03*
X0108964Y0060413D03*
X0108964Y0082461D03*
D16*
X0109264Y0079311D03*
X0109264Y0076161D03*
X0109264Y0073012D03*
X0109264Y0069862D03*
X0109264Y0066712D03*
X0109264Y0063563D03*
X0143064Y0063563D03*
X0143064Y0066712D03*
X0143064Y0069862D03*
X0143064Y0073012D03*
X0143064Y0076161D03*
X0143064Y0079311D03*
D17*
X0137187Y0088637D03*
X0115140Y0088637D03*
X0115140Y0054237D03*
X0137187Y0054237D03*
D18*
X0134038Y0054537D03*
X0130888Y0054537D03*
X0118290Y0054537D03*
X0118290Y0088337D03*
X0130888Y0088337D03*
X0134038Y0088337D03*
D19*
X0127739Y0088337D03*
X0124589Y0088337D03*
X0121439Y0088337D03*
X0121439Y0054537D03*
X0124589Y0054537D03*
X0127739Y0054537D03*
D20*
X0185864Y0054497D03*
X0195864Y0054497D03*
X0205864Y0054497D03*
X0205864Y0075993D03*
X0195864Y0075993D03*
X0185864Y0075993D03*
D21*
X0151164Y0110187D03*
X0141164Y0110187D03*
X0131164Y0110187D03*
X0121164Y0110187D03*
X0111164Y0110187D03*
X0101164Y0110187D03*
X0101164Y0032687D03*
X0111164Y0032687D03*
X0121164Y0032687D03*
X0131164Y0032687D03*
X0141164Y0032687D03*
X0151164Y0032687D03*
D22*
X0034078Y0066191D03*
X0013211Y0066191D03*
X0013211Y0099262D03*
X0034078Y0099262D03*
D23*
X0035062Y0089026D03*
X0035062Y0085876D03*
X0035062Y0082727D03*
X0035062Y0079577D03*
X0035062Y0076427D03*
D24*
X0067134Y0116197D03*
X0077134Y0116197D03*
D25*
X0077074Y0116137D01*
X0077074Y0095087D01*
X0089700Y0082461D01*
X0108964Y0082461D01*
X0111374Y0079107D02*
X0120513Y0079107D01*
X0127769Y0076161D02*
X0131044Y0072887D01*
X0134198Y0072887D01*
X0134323Y0073012D01*
X0143064Y0073012D01*
X0159800Y0073012D01*
X0161183Y0074395D01*
X0161183Y0077006D01*
X0186294Y0102117D01*
X0187664Y0102117D01*
X0160034Y0129746D01*
X0160034Y0138227D01*
X0152564Y0145697D01*
X0113694Y0145697D01*
X0109954Y0141957D01*
X0109954Y0138247D01*
X0098994Y0126407D02*
X0151334Y0126407D01*
X0159194Y0118547D01*
X0159194Y0098290D01*
X0143364Y0082461D01*
X0143064Y0079311D02*
X0147148Y0079311D01*
X0166274Y0098437D01*
X0166274Y0117757D01*
X0163014Y0121017D01*
X0163014Y0121247D01*
X0146614Y0137647D01*
X0142614Y0137647D01*
X0142034Y0138227D01*
X0124158Y0121337D02*
X0097633Y0121337D01*
X0079084Y0139887D01*
X0079084Y0149597D01*
X0079714Y0150227D01*
X0163694Y0150227D01*
X0212164Y0101757D01*
X0212164Y0060797D01*
X0205864Y0054497D01*
X0200964Y0048503D02*
X0200964Y0061086D01*
X0197924Y0064127D01*
X0197924Y0073933D01*
X0195864Y0075993D01*
X0185864Y0075993D02*
X0173069Y0063198D01*
X0161183Y0063198D01*
X0160819Y0063563D01*
X0143064Y0063563D01*
X0128487Y0063563D01*
X0122669Y0069382D01*
X0119999Y0066712D01*
X0109264Y0066712D01*
X0072978Y0066712D01*
X0072784Y0066717D01*
X0064424Y0066717D01*
X0058065Y0060548D01*
X0058065Y0030664D01*
X0058024Y0030182D01*
X0057684Y0029727D01*
X0055814Y0027857D01*
X0047674Y0027857D01*
X0026144Y0049387D01*
X0026144Y0088907D01*
X0026263Y0089026D01*
X0035062Y0089026D01*
X0044083Y0089026D01*
X0055213Y0100156D01*
X0055213Y0103598D01*
X0055213Y0114795D02*
X0055213Y0131206D01*
X0074234Y0150227D01*
X0079714Y0150227D01*
X0091954Y0138247D02*
X0091954Y0133447D01*
X0098994Y0126407D01*
X0101164Y0110187D02*
X0091505Y0110187D01*
X0089134Y0107815D01*
X0089134Y0096618D02*
X0097115Y0088637D01*
X0115140Y0088637D01*
X0118290Y0088337D02*
X0118290Y0092250D01*
X0111194Y0099347D01*
X0111194Y0110157D01*
X0111164Y0110187D01*
X0121164Y0110187D02*
X0121439Y0109911D01*
X0121439Y0088337D01*
X0124589Y0088337D02*
X0124649Y0088397D01*
X0124639Y0088387D01*
X0124589Y0088337D02*
X0124589Y0097172D01*
X0126264Y0098847D01*
X0126264Y0119231D01*
X0124158Y0121337D01*
X0131164Y0110187D02*
X0130888Y0109911D01*
X0130888Y0088337D01*
X0134038Y0088337D02*
X0134038Y0091641D01*
X0140994Y0098597D01*
X0140994Y0110017D01*
X0141164Y0110187D01*
X0151144Y0110167D02*
X0151164Y0110187D01*
X0151144Y0110167D02*
X0151144Y0099307D01*
X0140474Y0088637D01*
X0137187Y0088637D01*
X0132913Y0076097D02*
X0142644Y0076097D01*
X0142674Y0069807D02*
X0135644Y0069807D01*
X0135594Y0069757D01*
X0137594Y0066707D02*
X0142483Y0066707D01*
X0143364Y0060413D02*
X0151547Y0060413D01*
X0155134Y0057527D01*
X0177299Y0057527D01*
X0182370Y0061897D01*
X0189358Y0061897D01*
X0190764Y0060491D01*
X0190764Y0059597D01*
X0195864Y0054497D01*
X0200964Y0048503D02*
X0201074Y0048393D01*
X0201074Y0045677D01*
X0195504Y0040107D01*
X0187904Y0040107D01*
X0180254Y0047757D01*
X0138574Y0047757D01*
X0134038Y0052292D01*
X0134038Y0054537D01*
X0130888Y0054537D02*
X0130888Y0051402D01*
X0138564Y0043727D01*
X0158752Y0043727D01*
X0172452Y0030027D01*
X0161255Y0030027D02*
X0153824Y0030027D01*
X0151164Y0032687D01*
X0141164Y0032687D02*
X0136394Y0037457D01*
X0136464Y0041217D01*
X0127809Y0049872D01*
X0127739Y0054537D01*
X0124589Y0054537D02*
X0124589Y0047541D01*
X0129894Y0042237D01*
X0129894Y0033957D01*
X0131164Y0032687D01*
X0126694Y0040911D02*
X0126694Y0023013D01*
X0126864Y0022843D01*
X0126864Y0020527D01*
X0133452Y0013938D01*
X0133452Y0012667D01*
X0122255Y0012667D02*
X0121164Y0013758D01*
X0121164Y0032687D01*
X0111184Y0032667D02*
X0111164Y0032687D01*
X0111184Y0032667D02*
X0111184Y0020737D01*
X0109252Y0018805D01*
X0109252Y0012857D01*
X0106174Y0020975D02*
X0106174Y0041927D01*
X0109444Y0045197D01*
X0112074Y0045197D01*
X0118290Y0051413D01*
X0118290Y0054537D01*
X0115140Y0054237D02*
X0111704Y0054237D01*
X0101154Y0043687D01*
X0101154Y0032697D01*
X0101164Y0032687D01*
X0106174Y0020975D02*
X0098055Y0012857D01*
X0084634Y0035737D02*
X0079394Y0035737D01*
X0078814Y0035157D01*
X0063662Y0035157D01*
X0052465Y0035157D02*
X0052465Y0053007D01*
X0052515Y0053057D01*
X0052515Y0075956D01*
X0052044Y0076427D01*
X0066854Y0076427D01*
X0101133Y0076427D01*
X0101874Y0075687D01*
X0102348Y0076161D01*
X0109264Y0076161D01*
X0127769Y0076161D01*
X0122669Y0069382D02*
X0119038Y0073012D01*
X0109264Y0073012D01*
X0109264Y0069862D02*
X0101924Y0069862D01*
X0101874Y0069913D01*
X0101874Y0075687D01*
X0104010Y0063563D02*
X0109264Y0063563D01*
X0108964Y0060413D02*
X0108964Y0060067D01*
X0084634Y0035737D01*
X0079394Y0035737D02*
X0078914Y0035257D01*
X0078914Y0052957D02*
X0063812Y0052957D01*
X0063712Y0053057D01*
X0078914Y0052957D02*
X0078964Y0053007D01*
X0093454Y0053007D01*
X0104010Y0063563D01*
X0121439Y0054537D02*
X0121439Y0046165D01*
X0126694Y0040911D01*
X0137187Y0054237D02*
X0185604Y0054237D01*
X0185864Y0054497D01*
X0185864Y0075993D02*
X0185864Y0089074D01*
X0190336Y0093546D01*
X0187664Y0102117D02*
X0198804Y0102117D01*
X0201484Y0099437D01*
X0201484Y0093595D01*
X0201532Y0093546D01*
X0205864Y0089215D01*
X0205864Y0075993D01*
X0142433Y0060317D02*
X0131183Y0060317D01*
X0131113Y0060387D01*
X0067134Y0076587D02*
X0066854Y0076427D01*
X0067134Y0076587D02*
X0067134Y0116197D01*
X0052044Y0076427D02*
X0035062Y0076427D01*
M02*
